# xmcd
#
# Track frame offsets:
#	150
#	12328
#	24178
#	38360
#	46825
#	59153
#	67830
#	81924
#
# Disc length: 1258 seconds
# Revision: 0
# Processed by: cddbd v1.5.2PL0 Copyright (c) Steve Scherf et al.
# Submitted via: dBpowerAMP V12.0
#
DISCID=5704e808
DTITLE=Hank Williams Jr. - Those Tear Jerking Songs [Polygram Special Products] (PRC)
DYEAR=1992
DGENRE=Country
TTITLE0=Eleven Roses
TTITLE1=All I Can Give You Is My Heart
TTITLE2=Before You Fell Out of Love With Me
TTITLE3=Country Music
TTITLE4=Last Love Song
TTITLE5=One Out of Three Ain't Bad
TTITLE6=She Was Just Something to Do
TTITLE7=Same Old Story
EXTD=
EXTT0=
EXTT1=
EXTT2=
EXTT3=
EXTT4=
EXTT5=
EXTT6=
EXTT7=
PLAYORDER=
